<svg width="64" height="64" viewBox="0 0 64 64" fill="none" xmlns="http://www.w3.org/2000/svg">
    <rect width="64" height="64" rx="16" fill="url(#paint0_linear_3_75)" />
    <path
        d="M25.272 26.016C25.272 24.576 25.448 23.056 25.8 21.456C26.152 19.824 26.728 18.304 27.528 16.896C28.36 15.456 29.464 14.288 30.84 13.392C32.248 12.464 34.008 12 36.12 12C38.68 12 40.568 12.496 41.784 13.488C43.032 14.448 43.656 15.648 43.656 17.088C43.656 17.92 43.496 18.72 43.176 19.488C43.08 19.712 42.936 19.904 42.744 20.064C42.584 20.224 42.328 20.336 41.976 20.4C41.4 20.528 40.712 20.688 39.912 20.88C39.144 21.04 38.44 21.184 37.8 21.312C37.192 21.44 36.84 21.504 36.744 21.504C36.552 21.504 36.456 21.36 36.456 21.072C36.456 20.912 36.504 20.736 36.6 20.544C37.208 19.328 37.512 18.272 37.512 17.376C37.512 16.48 37.272 15.808 36.792 15.36C36.344 14.88 35.832 14.64 35.256 14.64C34.488 14.64 33.816 14.992 33.24 15.696C32.632 16.4 32.216 17.376 31.992 18.624C31.8 19.872 31.704 21.408 31.704 23.232V26.4H38.136C38.616 26.4 38.856 26.64 38.856 27.12V29.184C38.856 29.664 38.616 29.904 38.136 29.904H31.704V42.96C31.704 44.24 31.992 45.328 32.568 46.224C33.176 47.088 34.072 47.52 35.256 47.52C35.736 47.52 35.976 47.76 35.976 48.24V49.68C35.976 50.16 35.736 50.4 35.256 50.4H21.72C21.24 50.4 21 50.16 21 49.68V48.24C21 47.76 21.24 47.52 21.72 47.52C22.904 47.52 23.784 47.088 24.36 46.224C24.936 45.328 25.224 44.24 25.224 42.96V34.752C25.224 33.888 25.176 33.04 25.08 32.208C24.984 31.344 24.68 30.64 24.168 30.096C23.688 29.552 22.872 29.28 21.72 29.28C21.24 29.28 21 29.04 21 28.56V27.12C21 26.64 21.24 26.4 21.72 26.4H25.272V26.016Z"
        fill="url(#paint1_linear_3_75)" />
    <defs>
        <linearGradient id="paint0_linear_3_75" x1="32" y1="0" x2="32" y2="64" gradientUnits="userSpaceOnUse">
            <stop stop-color="#615FFF" />
            <stop offset="1" stop-color="#4F39F6" />
        </linearGradient>
        <linearGradient id="paint1_linear_3_75" x1="32.328" y1="12" x2="32.328" y2="50.4"
            gradientUnits="userSpaceOnUse">
            <stop offset="0.5" stop-color="white" />
            <stop offset="1" stop-color="#EEF2FF" />
        </linearGradient>
    </defs>
</svg>